<svg id="Layer_1" data-name="Layer 1" xmlns="http://www.w3.org/2000/svg" xmlns:xlink="http://www.w3.org/1999/xlink" viewBox="0 0 48 58.03"><defs><style>.cls-1{fill:#6dea11;}.cls-2{fill:url(#linear-gradient);}.cls-3,.cls-6{fill:#fff;}.cls-3{opacity:0.41;}.cls-4{fill:#153a4c;opacity:0.14;}.cls-5{fill:#e0e0e0;}.cls-7{fill:#3f3f3f;}</style><linearGradient id="linear-gradient" x1="23.18" y1="1.95" x2="37.87" y2="56.75" gradientUnits="userSpaceOnUse"><stop offset="0" stop-color="#cce0f4"/><stop offset="0.01" stop-color="#c5e1eb"/><stop offset="0.03" stop-color="#b3e3d1"/><stop offset="0.05" stop-color="#94e6a8"/><stop offset="0.07" stop-color="#6dea72"/><stop offset="0.21" stop-color="#71ea5b"/><stop offset="0.49" stop-color="#7aea21"/><stop offset="0.57" stop-color="#7dea11"/><stop offset="0.87" stop-color="#6dea11"/><stop offset="0.99" stop-color="#069400"/></linearGradient></defs><title>restaurant_marker</title><path class="cls-1" d="M49.39,25.13a20,20,0,1,0-33.27,15c5.3,6.32,13,13.77,13,13.77A83.32,83.32,0,0,0,43.57,39.23,19.93,19.93,0,0,0,49.39,25.13Z" transform="translate(-5.39 -1.13)"/><path class="cls-2" d="M29.39,5.13a20,20,0,0,1,14.18,34.1A83.32,83.32,0,0,1,29.12,53.85s-7.7-7.44-13-13.77a20,20,0,0,1,13.27-35m0-4A24,24,0,0,0,13.24,42.88C18.6,49.24,26,56.43,26.34,56.73l2.52,2.43L31.61,57a87.9,87.9,0,0,0,15-15.13A24,24,0,0,0,29.39,1.13Z" transform="translate(-5.39 -1.13)"/><path class="cls-3" d="M16.41,40c-.22-.52,11.18,10.75,11.18,10.75a2.26,2.26,0,0,0,3.11.22L34,49l-5.19,5S17.13,41.79,16.41,40Z" transform="translate(-5.39 -1.13)"/><path class="cls-4" d="M13.16,36.8S2.82,23.45,16.62,9.74C16.62,9.74,32-3.35,46,14c0,0,8.05,9.62-.35,22.84,0,0,10.06-16.61-6.41-28C39.22,8.83,21-2,11.38,19.62,11.38,19.62,8.11,27.27,13.16,36.8Z" transform="translate(-5.39 -1.13)"/><ellipse class="cls-5" cx="24.07" cy="23.87" rx="17.53" ry="17"/><path class="cls-6" d="M18,13.93S32.2,1.45,43.78,18.29c0,0-13.19-11.54-23.49-1.56Z" transform="translate(-5.39 -1.13)"/><path class="cls-6" d="M22.87,35.45S18,34.2,21.26,37.63c0,0,7.4,6.55,17.05-.31,0,0,2.25-2.18-1-2.18C37.35,35.14,32.84,39.19,22.87,35.45Z" transform="translate(-5.39 -1.13)"/><path class="cls-6" d="M17.4,15.49l1.93,3.12A9.78,9.78,0,0,0,15.47,27,11.77,11.77,0,0,1,17.4,15.49Z" transform="translate(-5.39 -1.13)"/><path class="cls-7" d="M27,12.47v5.4s-.57,1.25-1.09,0V12.53s-.13-1.05-1.09-1a1.11,1.11,0,0,0-1.16,1v5.34c-.54,1.25-1.16,0-1.16,0v-5.4c-1.16-2.11-2.18,0-2.18,0v6.26a5,5,0,0,0,2,3.49,2.24,2.24,0,0,1,1.29,1.65v1.85a1.15,1.15,0,0,1-.41,1.05,1.3,1.3,0,0,0-.68,1.32V38.17A2.36,2.36,0,0,0,24.8,40s1.4.13,2.11-1.78V28.09a1.33,1.33,0,0,0-.64-1.32,1.18,1.18,0,0,1-.38-1.05V23.87a2.24,2.24,0,0,1,1.21-1.65A5.06,5.06,0,0,0,29,18.73V12.47S28.05,10.36,27,12.47Z" transform="translate(-5.39 -1.13)"/><path class="cls-7" d="M33,38.72V27s.34-1.25-1.43-1.25c0,0-.68-.13-.68-1.38V18s.27-5.87,3.33-6.79,3.6,2.31,3.13,3.3V38.72a2,2,0,0,1-2,1.78S33.77,40.76,33,38.72Z" transform="translate(-5.39 -1.13)"/></svg>