<svg id="Layer_1" data-name="Layer 1" xmlns="http://www.w3.org/2000/svg" xmlns:xlink="http://www.w3.org/1999/xlink" viewBox="0 0 49.04 58.98"><defs><style>.cls-1{fill:#6dea11;}.cls-2{fill:url(#linear-gradient);}.cls-3,.cls-9{fill:#fff;}.cls-4{fill:#e0e0e0;}.cls-5{fill:#3f3f3f;}.cls-6{fill:#153a4c;opacity:0.14;}.cls-7{fill:#fc2b0e;}.cls-8{fill:url(#linear-gradient-2);}.cls-9{opacity:0.3;}.cls-10{fill:#c11e0e;opacity:0.21;}</style><linearGradient id="linear-gradient" x1="24.66" y1="1.66" x2="39.57" y2="57.29" gradientUnits="userSpaceOnUse"><stop offset="0" stop-color="#cce0f4"/><stop offset="0.01" stop-color="#c5e1eb"/><stop offset="0.03" stop-color="#b3e3d1"/><stop offset="0.05" stop-color="#94e6a8"/><stop offset="0.07" stop-color="#6dea72"/><stop offset="0.21" stop-color="#71ea5b"/><stop offset="0.49" stop-color="#7aea21"/><stop offset="0.57" stop-color="#7dea11"/><stop offset="0.87" stop-color="#6dea11"/><stop offset="0.99" stop-color="#069400"/></linearGradient><linearGradient id="linear-gradient-2" x1="24.46" y1="1.66" x2="39.38" y2="57.36" gradientUnits="userSpaceOnUse"><stop offset="0" stop-color="#ff6a6e"/><stop offset="0.02" stop-color="#ff6465"/><stop offset="0.04" stop-color="#fe534b"/><stop offset="0.08" stop-color="#fd3822"/><stop offset="0.09" stop-color="#fc2b0e"/><stop offset="0.57" stop-color="#fc2b0e"/><stop offset="0.81" stop-color="#ee310e"/><stop offset="0.99" stop-color="#cf0d0e"/></linearGradient></defs><title>barber</title><path class="cls-1" d="M51.32,25.19A20.36,20.36,0,1,0,17.46,40.42c5.39,6.43,13.23,14,13.23,14A84.88,84.88,0,0,0,45.4,39.55,20.32,20.32,0,0,0,51.32,25.19Z" transform="translate(-6.29 -0.83)"/><path class="cls-2" d="M31,4.83A20.36,20.36,0,0,1,45.4,39.55,84.88,84.88,0,0,1,30.69,54.43s-7.84-7.58-13.23-14A20.36,20.36,0,0,1,31,4.83m0-4A24.36,24.36,0,0,0,14.57,43.2C20,49.68,27.59,57,27.91,57.31l2.52,2.43,2.74-2.17a89.56,89.56,0,0,0,15.25-15.4A24.36,24.36,0,0,0,31,.83Z" transform="translate(-6.29 -0.83)"/><path class="cls-3" d="M17.75,40.36c-.22-.53,11.37,11,11.37,11a2.31,2.31,0,0,0,3.17.22l3.33-2.07-5.28,5.12S18.49,42.15,17.75,40.36Z" transform="translate(-6.29 -0.83)"/><circle class="cls-4" cx="24.68" cy="23.57" r="17.34"/><path class="cls-3" d="M19.67,13.11s14-12.73,25.46,4.45c0,0-13.05-11.77-23.23-1.59Z" transform="translate(-6.29 -0.83)"/><path class="cls-3" d="M24.44,35.07s-4.77-1.28-1.59,2.22c0,0,7.32,6.69,16.87-.31,0,0,2.22-2.23-1-2.23C38.76,34.75,34.31,38.89,24.44,35.07Z" transform="translate(-6.29 -0.83)"/><path class="cls-3" d="M19,14.7l1.91,3.18a10.08,10.08,0,0,0-3.82,8.6A12.36,12.36,0,0,1,19,14.7Z" transform="translate(-6.29 -0.83)"/><path class="cls-5" d="M29.13,11v5.34s-.55,1.23-1,0V11s-.12-1-1-1S26,11,26,11v5.27c-.52,1.23-1.11,0-1.11,0V11c-1.1-2.08-2.08,0-2.08,0v6.18a5,5,0,0,0,1.95,3.45A2.22,2.22,0,0,1,26,22.23v1.82a1.16,1.16,0,0,1-.39,1,1.3,1.3,0,0,0-.65,1.3v10c.71,1.88,2.14,1.75,2.14,1.75s1.35.13,2-1.75v-10a1.34,1.34,0,0,0-.61-1.3,1.17,1.17,0,0,1-.37-1V22.23a2.24,2.24,0,0,1,1.16-1.63,5,5,0,0,0,1.84-3.45V11S30.17,8.89,29.13,11Z" transform="translate(-6.29 -0.83)"/><path class="cls-5" d="M34.86,36.88V25.36s.33-1.23-1.36-1.23c0,0-.66-.13-.66-1.37V16.39S33.1,10.6,36,9.69s3.45,2.27,3,3.25V36.88a2,2,0,0,1-2,1.76S35.64,38.9,34.86,36.88Z" transform="translate(-6.29 -0.83)"/><path class="cls-6" d="M14.44,37.07S3.92,23.48,18,9.53c0,0,15.67-13.33,29.89,4.29,0,0,8.2,9.79-.35,23.25,0,0,10.24-16.91-6.53-28.48,0,0-18.51-11-28.34,11C12.63,19.58,9.31,27.37,14.44,37.07Z" transform="translate(-6.29 -0.83)"/><path class="cls-7" d="M51.25,25.23A20.48,20.48,0,1,0,17.18,40.48c5.43,6.45,13.31,14,13.31,14A84.87,84.87,0,0,0,45.29,39.6,20.22,20.22,0,0,0,51.25,25.23Z" transform="translate(-6.29 -0.83)"/><path class="cls-8" d="M30.77,4.84A20.43,20.43,0,0,1,51.25,25.23a20.22,20.22,0,0,1-6,14.37,84.87,84.87,0,0,1-14.8,14.91s-7.88-7.58-13.31-14A20.37,20.37,0,0,1,30.77,4.84m0-4A24.37,24.37,0,0,0,14.3,43.27c5.49,6.48,13.1,13.81,13.42,14.13l2.51,2.41L33,57.65A90,90,0,0,0,48.31,42.24a24.17,24.17,0,0,0,6.94-17A24.46,24.46,0,0,0,30.77.84Z" transform="translate(-6.29 -0.83)"/><path class="cls-9" d="M17.47,40.42c-.22-.53,11.44,11,11.44,11a2.33,2.33,0,0,0,3.19.23l3.36-2.08-5.32,5.13S18.21,42.21,17.47,40.42Z" transform="translate(-6.29 -0.83)"/><path class="cls-10" d="M14.14,37.12S3.56,23.51,17.69,9.54c0,0,15.76-13.35,30.07,4.3,0,0,8.25,9.81-.36,23.28,0,0,10.31-16.93-6.56-28.52,0,0-18.62-11-28.52,11C12.32,19.61,9,27.41,14.14,37.12Z" transform="translate(-6.29 -0.83)"/><circle class="cls-4" cx="24.54" cy="24.08" r="17.34"/><path class="cls-3" d="M19.53,13.61S33.53.88,45,18.07c0,0-13-11.78-23.23-1.59Z" transform="translate(-6.29 -0.83)"/><path class="cls-3" d="M18.9,15.21l1.91,3.18A10.05,10.05,0,0,0,17,27,12.31,12.31,0,0,1,18.9,15.21Z" transform="translate(-6.29 -0.83)"/><path class="cls-3" d="M25.67,35.19S21.14,34,24.16,37.31c0,0,7,6.35,16-.3,0,0,2.12-2.12-.91-2.12C39.28,34.89,35.05,38.82,25.67,35.19Z" transform="translate(-6.29 -0.83)"/><path class="cls-5" d="M33.14,27.06s.85-4,6-7.72c0,0,4.67-1.19,3.75-5.26s-5.59-2.87-5.59-2.87-3.08,1.31-3.15,3.86L31.71,26.12ZM36.46,13.3a3.62,3.62,0,0,1,4.6-.31,2.57,2.57,0,0,1,.12,4,3.62,3.62,0,0,1-4.6.31A2.57,2.57,0,0,1,36.46,13.3Z" transform="translate(-6.29 -0.83)"/><path class="cls-5" d="M29.5,26.19s-.27-3.81-4.91-8.09c0,0-4.4-1.71-3.09-5.56s5.71-2.12,5.71-2.12,2.85,1.64,2.66,4.13l.77,11.18ZM27.86,12.56a3.54,3.54,0,0,0-4.43-.85,2.51,2.51,0,0,0-.53,3.87,3.54,3.54,0,0,0,4.43.85A2.52,2.52,0,0,0,27.86,12.56Z" transform="translate(-6.29 -0.83)"/><polygon class="cls-5" points="24.59 31.24 20.48 41.18 23.36 27.02 24.59 31.24"/><path class="cls-5" d="M33,27.42,30.68,26l-1.13.5,4.69,16.25Zm-1.71.45a.88.88,0,0,1,1.08.3.65.65,0,0,1-.34.93.87.87,0,0,1-1.08-.3A.65.65,0,0,1,31.28,27.87Z" transform="translate(-6.29 -0.83)"/></svg>